<svg width="21" height="21" viewBox="0 0 21 21" fill="none" xmlns="http://www.w3.org/2000/svg">
<path d="M20.4258 17.7188L13.207 10.5L20.3984 3.28125C20.5078 3.17187 20.5078 3.00781 20.3984 2.89844L18.0742 0.574219C17.9648 0.464844 17.8008 0.464844 17.6914 0.574219L10.5 7.79297L3.30859 0.601562C3.19922 0.492187 3.03516 0.492187 2.92578 0.601562L0.601562 2.92578C0.492187 3.03516 0.492187 3.19922 0.601562 3.30859L7.76563 10.5L0.574219 17.6914C0.464844 17.8008 0.464844 17.9648 0.574219 18.0742L2.89844 20.3984C3.00781 20.5078 3.19922 20.5078 3.28125 20.3984L10.5 13.207L17.6914 20.3984C17.8008 20.5078 17.9922 20.5078 18.1016 20.4258L20.4258 18.1016C20.5352 17.9922 20.5352 17.8281 20.4258 17.7188Z" fill="#536779"/>
</svg>
