<svg width="85" height="85" viewBox="0 0 85 85" fill="none" xmlns="http://www.w3.org/2000/svg">
<path d="M46.2477 36.1406L48.9639 36.126C50.6872 34.3215 52.7675 32.1756 55.4862 32.3349C58.2155 32.188 60.2853 34.2964 62.009 36.126C63.1623 36.1704 65.3888 35.9991 66.4683 36.402V19.1157H18.5312V46.7158H38.3887L39.7399 45.3503L39.769 42.6338C39.7848 40.9191 40.472 39.2789 41.6832 38.065C42.8943 36.8511 44.533 36.1603 46.2477 36.1406ZM27.9734 30.083C25.1174 30.0401 25.1015 25.7714 27.9734 25.7251H57.0261C59.8786 25.7757 59.8952 30.0291 57.0261 30.083H27.9734Z" fill="#536779"/>
<path d="M75.1843 8.22096H9.81567C9.2398 8.21933 8.68683 8.44638 8.27826 8.85222C7.86969 9.25807 7.63894 9.80951 7.63672 10.3854V55.4317C7.6384 56.009 7.8685 56.5623 8.27677 56.9706C8.68504 57.3788 9.23829 57.6089 9.81567 57.6106H38.9702C37.0394 55.9039 35.6113 53.6669 36.0213 51.0737H16.3525C15.7752 51.0721 15.2219 50.842 14.8136 50.4337C14.4054 50.0254 14.1753 49.4722 14.1736 48.8948V16.9368C14.1732 16.6505 14.2293 16.367 14.3386 16.1025C14.448 15.8379 14.6085 15.5975 14.8109 15.3951C15.0133 15.1927 15.2537 15.0322 15.5182 14.9229C15.7828 14.8135 16.0663 14.7574 16.3525 14.7578H68.6475C69.2248 14.7595 69.7781 14.9896 70.1864 15.3979C70.5947 15.8061 70.8248 16.3594 70.8264 16.9368V40.484C71.3789 41.7139 71.1945 44.0099 71.2332 45.3503L73.1507 47.2822C76.2152 50.5148 75.2857 54.9366 72.0031 57.6106H75.1843C75.7609 57.6065 76.3127 57.3756 76.7205 56.9679C77.1283 56.5601 77.3592 56.0083 77.3633 55.4317V10.3854C77.3586 9.81028 77.1271 9.26027 76.719 8.85496C76.311 8.44964 75.7595 8.22179 75.1843 8.22096Z" fill="#536779"/>
<path d="M68.0229 67.5754L62.0092 67.6191L59.2344 70.35L61.3956 76.2994C61.4447 76.4344 61.5326 76.5518 61.6484 76.6368C61.7642 76.7218 61.9026 76.7706 62.0461 76.7769C62.1896 76.7832 62.3317 76.7469 62.4546 76.6724C62.5774 76.598 62.6754 76.4888 62.7362 76.3586L64.7545 72.0351L69.0609 74.0506C69.1911 74.1114 69.3364 74.1324 69.4784 74.1106C69.6205 74.0889 69.7529 74.0255 69.8589 73.9285C69.9649 73.8315 70.0398 73.7052 70.074 73.5656C70.1082 73.4261 70.1002 73.2795 70.0511 73.1445L68.0229 67.5754Z" fill="#536779"/>
<path d="M42.9651 67.5754L40.9368 73.1445C40.8877 73.2795 40.8797 73.4261 40.9139 73.5657C40.9482 73.7052 41.023 73.8315 41.129 73.9285C41.235 74.0255 41.3674 74.0889 41.5095 74.1107C41.6515 74.1324 41.7968 74.1115 41.927 74.0506L46.2335 72.0352L48.2526 76.3601C48.3133 76.4902 48.4112 76.5993 48.5339 76.6738C48.6567 76.7482 48.7987 76.7846 48.9421 76.7783C49.0856 76.772 49.2239 76.7233 49.3396 76.6384C49.4554 76.5535 49.5433 76.4361 49.5924 76.3012L51.7536 70.3646L48.9643 67.6191L42.9651 67.5754Z" fill="#536779"/>
<path d="M66.8928 47.1478L66.8602 42.6594C66.8559 42.0883 66.6272 41.5417 66.2233 41.1379C65.8194 40.734 65.2729 40.5053 64.7018 40.501L60.2134 40.4684L57.0176 37.3186C56.6108 36.9176 56.0625 36.6929 55.4913 36.6929C54.9201 36.6929 54.3719 36.9176 53.9651 37.3186L50.7697 40.4684L46.2813 40.501C45.7102 40.5051 45.1635 40.7337 44.7596 41.1376C44.3557 41.5415 44.127 42.0881 44.1229 42.6592L44.0899 47.1478L40.9403 50.3432C40.5393 50.75 40.3145 51.2983 40.3145 51.8695C40.3145 52.4407 40.5393 52.989 40.9403 53.3958L44.09 56.5915L44.1226 61.0799C44.1269 61.651 44.3556 62.1975 44.7595 62.6014C45.1633 63.0053 45.7099 63.234 46.281 63.2383L50.7694 63.2709L53.9652 66.4207C54.372 66.8216 54.9203 67.0464 55.4914 67.0464C56.0626 67.0464 56.6109 66.8216 57.0177 66.4207L60.213 63.2709L64.7015 63.2383C65.2726 63.2341 65.8191 63.0054 66.223 62.6015C66.6269 62.1977 66.8556 61.6512 66.8599 61.0801L66.8928 56.5915L70.0424 53.3959C70.4434 52.9891 70.6683 52.4409 70.6683 51.8697C70.6683 51.2985 70.4434 50.7502 70.0424 50.3435L66.8928 47.1478ZM55.4916 57.6802C47.8113 57.4432 47.8127 46.2949 55.4916 46.0591C63.1718 46.2963 63.17 57.4441 55.4916 57.6802H55.4916Z" fill="#536779"/>
</svg>
