<svg width="80" height="80" viewBox="0 0 80 80" fill="none" xmlns="http://www.w3.org/2000/svg">
<path d="M51.8049 62.41C52.0449 62.65 51.9474 63.07 51.6224 63.175C32.3724 69.34 11.5424 59.4175 5.13744 40.82C4.95744 40.295 4.95744 39.71 5.13744 39.1825C6.99494 33.79 10.1124 29.065 14.1074 25.25C14.2599 25.105 14.5024 25.11 14.6499 25.2575L25.4049 36.0125C25.4799 36.0875 25.5074 36.1925 25.4824 36.295C22.6924 47.1575 32.8524 57.2825 43.6724 54.53C43.7949 54.4975 43.9099 54.52 43.9999 54.61C44.8949 55.5025 50.1124 60.7175 51.8049 62.41Z" fill="#536779"/>
<path d="M61.7001 58.165C67.7151 53.935 72.4026 47.9675 74.8651 40.8125C75.0451 40.2875 75.0451 39.7125 74.8651 39.1875C69.8851 24.72 55.8751 15 40.0001 15C33.8026 15 27.8976 16.4925 22.6976 19.1625L9.26764 5.73251C8.29014 4.75501 6.71014 4.75501 5.73264 5.73251C4.75514 6.71001 4.75514 8.29001 5.73264 9.26751L70.7326 74.2675C71.7101 75.245 73.2901 75.245 74.2676 74.2675C75.2451 73.29 75.2451 71.71 74.2676 70.7325L61.7001 58.165ZM40.0001 25C48.2726 25 55.0001 31.7275 55.0001 40C55.0001 43.235 53.9601 46.225 52.2126 48.6775L31.3226 27.7875C33.7751 26.04 36.7651 25 40.0001 25Z" fill="#536779"/>
</svg>
