<svg width="80" height="73" viewBox="0 0 80 73" fill="none" xmlns="http://www.w3.org/2000/svg">
<path d="M76.25 0.466797H3.75C1.6875 0.466797 0 2.23845 0 4.40381V53.8356C0 56.001 1.6875 57.7727 3.75 57.7727H33.75V66.8488H22.3438V72.0981H57.6562V66.8488H46.25V57.7727H76.25C78.3125 57.7727 80 56.001 80 53.8356V4.40381C80 2.23845 78.3125 0.466797 76.25 0.466797ZM40 11.4064C44.1888 11.4064 47.5838 14.9576 47.5838 19.3395C47.5838 23.7214 44.1888 27.2726 40 27.2726C35.8112 27.2726 32.4163 23.7214 32.4163 19.3395C32.4163 14.9576 35.8112 11.4064 40 11.4064ZM45.2775 29.0941L40 41.3173L34.7225 29.0941H40H45.2775ZM24.6275 45.7136C24.6275 45.7136 24.6275 43.9984 24.6275 36.6007C24.6275 29.2031 32.315 29.0968 32.315 29.0968L39.6425 45.7136C39.6912 45.7136 24.6275 45.7136 24.6275 45.7136ZM55.3725 45.7136C55.3725 45.7136 40.3088 45.7136 40.3575 45.7136L47.685 29.0968C47.685 29.0968 55.3725 29.2031 55.3725 36.6007C55.3725 43.9984 55.3725 45.7136 55.3725 45.7136Z" fill="#536779"/>
</svg>
