<svg width="50" height="50" viewBox="0 0 50 50" fill="none" xmlns="http://www.w3.org/2000/svg">
<path d="M22.067 0.109356C18.7523 0.482231 14.7874 1.8672 11.8883 3.65699C9.54344 5.11653 6.85752 7.50293 5.25877 9.56972C2.53022 13.0961 0.81422 17.1551 0.142742 21.6615C-0.070426 23.1104 -0.0384509 27.1161 0.196034 28.6396C1.29385 35.7242 5.21613 41.9033 11.1422 45.8558C14.2012 47.8906 17.7824 49.2649 21.4382 49.8082C23.1862 50.0639 26.81 50.0639 28.558 49.8082C32.9386 49.1584 37.2446 47.2833 40.6659 44.5454C45.5581 40.6249 48.8089 34.9891 49.8002 28.7248C50.0666 27.0309 50.0666 23.0039 49.8002 21.3099C48.9155 15.7275 46.2935 10.7097 42.254 6.86372C38.3104 3.11366 33.0771 0.673996 27.748 0.0987015C26.5329 -0.0397949 23.2821 -0.0291405 22.067 0.109356ZM27.8012 15.1202C29.3361 15.7701 31.6489 16.7502 32.9386 17.2829C34.2283 17.8262 35.5286 18.3802 35.8164 18.5187C36.1148 18.6572 37.575 19.2751 39.0672 19.9037C43.8741 21.9279 44.4177 22.1729 44.2685 22.2581C44.1938 22.3114 43.0001 23.0039 41.6252 23.8135L39.1205 25.2944L39.0885 27.9791C39.0672 30.2483 39.0885 30.6638 39.2164 30.6638C39.4402 30.6638 39.9198 31.2817 39.9198 31.5693C39.9198 31.8676 39.696 31.9422 38.7261 31.9422H38.0013V31.58C38.0013 31.3243 38.0972 31.1219 38.3211 30.8769L38.6408 30.5359V28.0537V25.5714L36.733 26.6474L34.8251 27.734L34.7825 29.3321L34.7505 30.9301L34.3029 31.8357C33.7699 32.9223 33.7913 32.8904 32.7787 33.7107C31.2972 34.9146 30.2633 35.33 27.6094 35.7881C25.4564 36.1504 24.5718 36.1717 22.7705 35.8734C21.5874 35.6816 19.4771 35.053 18.7843 34.7015C18.2407 34.4138 16.6739 33.178 16.3222 32.7519C15.5761 31.8357 15.4695 31.4521 15.4055 29.5025L15.3523 27.7447L10.524 25.0067C7.87007 23.4939 5.69576 22.2262 5.69576 22.1835C5.69576 22.1409 6.62304 21.7148 7.75283 21.2354C11.7817 19.5202 16.8977 17.3468 20.5216 15.8127C22.5467 14.9604 24.3479 14.1827 24.5185 14.1081C24.6997 14.0229 24.8808 13.9483 24.9235 13.9483C24.9768 13.9377 26.2664 14.4704 27.8012 15.1202ZM40.2076 33.4444C40.4421 34.0729 40.4528 34.1155 40.2716 34.318C39.9518 34.6589 39.5361 34.8187 38.9073 34.8187C38.2465 34.8187 37.7775 34.6163 37.575 34.2434C37.4897 34.0623 37.5004 33.9238 37.6389 33.5935C37.7349 33.3591 37.8521 33.0715 37.8947 32.9543C37.9693 32.7625 38.0653 32.7412 38.9606 32.7519L39.9518 32.7732L40.2076 33.4444Z" fill="#D3DDE6"/>
<path d="M6.51645 22.1301C6.56975 22.1833 10.2575 24.3034 14.7128 26.8282C19.168 29.3637 23.3034 31.7181 23.9109 32.059C24.6997 32.5065 25.0088 32.6343 24.9768 32.5065C24.9341 32.3041 6.94279 22.0449 6.62304 22.0342C6.48448 22.0342 6.4525 22.0662 6.51645 22.1301Z" fill="#D3DDE6"/>
</svg>
