<svg width="50" height="50" viewBox="0 0 50 50" fill="none" xmlns="http://www.w3.org/2000/svg">
<path d="M47.8975 16.3297C47.633 15.8027 46.9297 15.5595 46.32 15.7905C45.7138 16.0204 45.4352 16.6343 45.6997 17.1619C49.4316 24.6124 47.5721 33.1391 40.9614 38.8859C36.6972 42.5933 31.0274 44.6353 24.9973 44.6353C19.7329 44.6353 14.7433 43.0786 10.7235 40.2165L19.1801 38.6418C19.8272 38.5212 20.2403 37.9672 20.1011 37.4046C19.9619 36.842 19.3205 36.4823 18.6793 36.6039L7.93436 38.6047C7.28719 38.7252 6.8741 39.2793 7.01332 39.8418L9.31403 49.1842C9.58871 50.1251 10.612 50.0034 10.736 49.9849C11.3378 49.8952 11.7961 49.3103 11.6569 48.7477L10.1039 42.4396C14.3859 45.217 19.5588 46.719 24.9974 46.719C31.6677 46.719 37.9389 44.4604 42.6562 40.3592C49.9688 34.0029 52.026 24.5712 47.8975 16.3297Z" fill="#D3DDE6"/>
<path d="M9.03787 11.1229C17.2966 3.94241 30.4142 3.49999 39.2752 9.79279L30.8192 11.3671C30.1721 11.4876 29.7591 12.0417 29.8983 12.6042C30.0189 13.0931 30.515 13.4277 31.0684 13.4277C31.1337 13.5088 42.0662 11.4042 42.0662 11.4042C42.9917 11.2222 43.054 10.4372 42.9872 10.167L40.6853 0.825093C40.5472 0.262967 39.9071 -0.0997417 39.2635 0.0243589C38.6164 0.144888 38.2032 0.698952 38.3424 1.26149L39.8975 7.57439C30.1251 1.25363 16.2048 1.94465 7.34324 9.64981C0.0316847 16.0058 -2.02567 25.4379 2.10183 33.6793C2.29834 34.0715 2.84127 34.4944 3.67931 34.2186C4.25709 34.0284 4.56406 33.3746 4.29959 32.8471C0.567681 25.3967 2.42724 16.8696 9.03787 11.1229Z" fill="#D3DDE6"/>
<path d="M13.7388 25.2909L9.93542 28.6127V30.1717H18.509V28.4098H12.8239L15.7642 25.8053C16.6626 25.0059 17.2781 24.351 17.613 23.8416C17.9478 23.3321 18.1152 22.796 18.1152 22.2355C18.1152 21.2372 17.719 20.4499 16.9316 19.8729C16.1416 19.2959 15.2244 19.0078 14.1774 19.0078C13.1304 19.0078 12.2769 19.1893 11.6118 19.5531C10.9492 19.917 10.3409 20.4582 9.7915 21.1746L11.4963 22.0324C12.1778 21.1181 13.0314 20.66 14.0618 20.66C14.6466 20.66 15.13 20.8138 15.5142 21.1203C15.8962 21.4267 16.0873 21.7987 16.0873 22.2355C16.0873 22.6721 15.9082 23.1035 15.5498 23.5289C15.1914 23.9554 14.5877 24.5428 13.7388 25.2909Z" fill="#D3DDE6"/>
<path d="M27.5119 30.1726V27.4287H29.0186V25.76H27.5119V23.7643H25.5029V25.76H22.5082L27.0451 19.2727H24.7318L20.1221 25.8061V27.4287H25.5029V30.1726H27.5119Z" fill="#D3DDE6"/>
<path d="M39.9598 30.1725V25.0893C39.9598 24.0079 39.6297 23.1817 38.9647 22.6098C38.3021 22.0378 37.432 21.7519 36.3545 21.7519C35.6848 21.7519 35.0599 21.8974 34.4798 22.1885C33.8996 22.4795 33.4682 22.8803 33.1805 23.3888V18.6172H31.1714V30.1726H33.1805V25.6819C33.1805 24.912 33.4375 24.3279 33.9515 23.9271C34.4656 23.5272 35.0692 23.3274 35.7625 23.3274C37.2221 23.3274 37.9506 24.091 37.9506 25.6194V30.1726H39.9598V30.1725Z" fill="#D3DDE6"/>
</svg>
