<svg width="50" height="50" viewBox="0 0 50 50" fill="none" xmlns="http://www.w3.org/2000/svg">
<path d="M22.067 0.109356C18.7523 0.482231 14.7874 1.8672 11.8883 3.65699C9.54344 5.11653 6.85752 7.50293 5.25877 9.56972C2.53022 13.0961 0.81422 17.1551 0.142742 21.6615C-0.070426 23.1104 -0.0384509 27.1161 0.196034 28.6396C1.29385 35.7242 5.21613 41.9033 11.1422 45.8558C14.2012 47.8906 17.7824 49.2649 21.4382 49.8082C23.1862 50.0639 26.81 50.0639 28.558 49.8082C32.9386 49.1584 37.2446 47.2833 40.6659 44.5454C45.5581 40.6249 48.8089 34.9891 49.8002 28.7248C50.0666 27.0309 50.0666 23.0039 49.8002 21.3099C48.9155 15.7275 46.2935 10.7097 42.254 6.86372C38.3104 3.11366 33.0771 0.673996 27.748 0.0987015C26.5329 -0.0397949 23.2821 -0.0291405 22.067 0.109356ZM32.1605 11.9881L37.7988 17.6132L37.7668 25.7631C37.7349 33.3378 37.7242 33.9451 37.543 34.3393C37.2872 34.9146 36.669 35.5431 36.0828 35.8201C35.6138 36.0332 35.4433 36.0438 30.6257 36.0758C25.9254 36.1078 25.6483 36.0971 25.595 35.916C25.4671 35.5112 24.9981 33.7 24.9981 33.6255C24.9981 33.5829 27.2896 33.5296 30.0928 33.5189L35.1768 33.487L35.2088 25.5288L35.2301 17.5705L31.9047 17.5386C28.1423 17.5066 28.1849 17.5066 27.2683 16.6117C26.5436 15.9192 26.4903 15.589 26.4903 11.9455V8.82397H22.5467C18.7629 8.82397 18.6031 8.83463 18.4965 9.02639C18.4325 9.16489 18.3899 11.0293 18.3899 14.3532V19.4775H17.7291C17.356 19.4775 16.8018 19.5521 16.5034 19.6267L15.9385 19.7758V14.1188C15.9385 7.716 15.9065 7.98234 16.7911 7.13005C17.5479 6.39496 17.6012 6.39496 22.3335 6.38431L26.5329 6.37365L32.1605 11.9881ZM19.2639 20.5535C21.1824 20.9584 22.8238 22.5671 23.346 24.5593C24.0708 27.3292 22.3015 30.3016 19.509 31.0367C18.731 31.2284 17.452 31.2391 16.7378 31.0473C14.425 30.4401 12.8262 28.5011 12.6663 26.136C12.5278 24.1545 13.4551 22.4179 15.2776 21.2034C16.2795 20.5322 17.9103 20.2766 19.2639 20.5535ZM23.5699 31.6333C23.8896 32.8265 24.5718 35.4153 25.0727 37.3755C25.5736 39.3358 26.032 41.1256 26.0852 41.3493C26.2771 42.0311 26.3837 42.0737 23.8576 40.5929C23.1435 40.1668 22.4934 39.7939 22.4081 39.7726C22.3122 39.73 22.163 39.9004 21.9605 40.2733C21.1717 41.7648 20.0419 43.5439 19.978 43.4268C19.9354 43.3522 19.6156 42.1803 19.2639 40.8379C18.9122 39.4849 18.262 36.992 17.8143 35.2874C17.3667 33.5829 17.0043 32.134 17.0043 32.0807C17.0043 32.0168 17.3667 31.9955 17.889 32.0274C18.9335 32.0807 19.7222 31.9422 20.5855 31.5267C21.2783 31.1965 22.3015 30.3229 22.6639 29.7476C22.7918 29.5452 22.909 29.396 22.941 29.4173C22.9623 29.4493 23.2501 30.4401 23.5699 31.6333ZM15.0325 30.9834C15.0751 31.0473 15.3523 31.2391 15.6507 31.4095L16.1943 31.7185L17.0683 35.0211L17.9529 38.3237L17.5372 39.8898C17.3134 40.7421 17.1002 41.4665 17.0789 41.4985C17.0469 41.5198 16.8977 41.3067 16.7378 41.0297C16.5673 40.7527 16.1836 40.0815 15.8639 39.5382L15.299 38.5687L14.4676 39.0162C14.02 39.2719 13.3165 39.6767 12.9115 39.9217C12.24 40.3372 12.1867 40.3585 12.2507 40.1241C12.5384 39.0268 13.7002 34.6908 14.1479 32.9756C14.6701 31.0153 14.83 30.6531 15.0325 30.9834Z" fill="#D3DDE6"/>
</svg>
