<svg width="40" height="41" viewBox="0 0 40 41" fill="none" xmlns="http://www.w3.org/2000/svg">
<rect y="0.231445" width="40" height="40" rx="5" fill="#D3DDE6"/>
<path d="M23.7333 21.6527C22.6667 22.7041 22.6667 23.7555 21.6 23.7555C20.5333 23.7555 19.4667 22.7041 18.4 21.6527C17.3333 20.6014 16.2667 19.55 16.2667 18.4986C16.2667 17.4473 17.3333 17.4473 18.4 16.3959C19.4667 15.3445 16.2667 12.1904 15.2 12.1904C14.1333 12.1904 12 15.3445 12 15.3445C12 17.4473 14.192 21.7106 16.2667 23.7555C18.3413 25.8004 22.6667 27.9609 24.8 27.9609C24.8 27.9609 28 25.8582 28 24.8068C28 23.7555 24.8 20.6014 23.7333 21.6527Z" fill="white"/>
</svg>
