<svg width="16" height="52" viewBox="0 0 16 52" fill="none" xmlns="http://www.w3.org/2000/svg">
<path d="M10.1323 51.274C9.89026 51.7704 9.29161 51.9766 8.7952 51.7345L0.705735 47.7899C0.209325 47.5478 0.00313747 46.9491 0.245203 46.4527C0.487268 45.9563 1.08592 45.7501 1.58233 45.9922L8.77297 49.4986L12.2794 42.3079C12.5214 41.8115 13.1201 41.6053 13.6165 41.8474C14.1129 42.0895 14.3191 42.6881 14.077 43.1845L10.1323 51.274ZM15.456 1.96201C8.69648 14.1744 3.13083 30.0461 10.179 50.5101L8.28801 51.1614C0.986341 29.9614 6.79529 13.4793 13.7061 0.993483L15.456 1.96201Z" fill="#F79781"/>
</svg>
