<svg width="178" height="49" viewBox="0 0 178 49" fill="none" xmlns="http://www.w3.org/2000/svg">
<path d="M176.214 47.3605C177.038 47.2754 177.637 46.5383 177.552 45.7143L176.164 32.2858C176.079 31.4617 175.342 30.8627 174.518 30.9479C173.694 31.033 173.095 31.77 173.18 32.5941L174.413 44.5305L162.477 45.7637C161.653 45.8489 161.054 46.5859 161.139 47.4099C161.224 48.234 161.961 48.833 162.785 48.7478L176.214 47.3605ZM1.32714 10.2013C51.4223 -1.00303 112.941 -3.49625 175.113 47.0325L177.006 44.7044C113.85 -6.62358 51.256 -4.03997 0.672336 7.27361L1.32714 10.2013Z" fill="#F79781"/>
</svg>
