<svg width="133" height="24" viewBox="0 0 133 24" fill="none" xmlns="http://www.w3.org/2000/svg">
<path d="M1.55336 17.9207C0.770222 17.6505 0.354401 16.7966 0.624589 16.0135L5.02749 3.25164C5.29767 2.46851 6.15155 2.05268 6.93468 2.32287C7.7178 2.59305 8.13363 3.44693 7.86344 4.23006L3.94975 15.5739L15.2936 19.4876C16.0767 19.7578 16.4926 20.6117 16.2224 21.3948C15.9522 22.1779 15.0983 22.5938 14.3152 22.3236L1.55336 17.9207ZM130.754 23.9337C97.84 5.89082 55.4157 -7.82072 2.6993 17.8513L1.38583 15.1541C55.3145 -11.1082 98.8216 3.00773 132.196 21.303L130.754 23.9337Z" fill="#F79781"/>
</svg>
