<svg width="51" height="168" viewBox="0 0 51 168" fill="none" xmlns="http://www.w3.org/2000/svg">
<path d="M0.113379 165.047C0.0769158 165.875 0.718283 166.576 1.54591 166.612L15.0328 167.206C15.8605 167.243 16.5609 166.601 16.5974 165.774C16.6339 164.946 15.9925 164.246 15.1649 164.209L3.17649 163.681L3.70463 151.693C3.74109 150.865 3.09973 150.164 2.2721 150.128C1.44448 150.092 0.744 150.733 0.707535 151.561L0.113379 165.047ZM33.1546 1.12515C42.8931 25.4094 49.9636 52.1809 47.0218 79.8219C44.0852 107.414 31.155 136.03 0.598972 164.007L2.62488 166.22C33.6666 137.798 46.9836 108.528 50.0049 80.1394C53.021 51.8005 45.7601 24.4984 35.9391 0.00852962L33.1546 1.12515Z" fill="#F79781"/>
</svg>
