<svg width="90" height="57" viewBox="0 0 90 57" fill="none" xmlns="http://www.w3.org/2000/svg">
<path d="M76.8407 55.5406C77.4145 56.1381 78.364 56.1573 78.9615 55.5835L88.6986 46.2326C89.2961 45.6588 89.3153 44.7092 88.7415 44.1117C88.1677 43.5142 87.2181 43.495 86.6206 44.0688L77.9655 52.3807L69.6535 43.7255C69.0797 43.128 68.1302 43.1088 67.5326 43.6826C66.9351 44.2564 66.9159 45.206 67.4897 45.8035L76.8407 55.5406ZM1.03356 5.23187C44.6311 -4.59325 77.0092 25.4902 76.4229 54.4712L79.4222 54.5319C80.0545 23.2808 45.5443 -7.87429 0.37402 2.30526L1.03356 5.23187Z" fill="#F79781"/>
</svg>
