<svg width="260" height="298" viewBox="0 0 260 298" fill="none" xmlns="http://www.w3.org/2000/svg">
<path d="M68.3704 42.7185C68.3704 31.1701 59.0704 21.8701 47.522 21.8701C35.9736 21.8701 26.6736 31.1701 26.6736 42.7185C26.6736 54.2668 47.522 75.8306 47.522 75.8306C47.522 75.8306 68.3704 54.2668 68.3704 42.7185ZM37.8132 42.3097C37.8132 36.9954 42.2077 32.6009 47.522 32.6009C52.8363 32.6009 57.2308 36.8932 57.2308 42.3097C57.2308 47.624 52.9385 52.0185 47.522 52.0185C42.2077 52.0185 37.8132 47.624 37.8132 42.3097Z" fill="#F79781"/>
<path d="M68.3704 242.718C68.3704 231.17 59.0704 221.87 47.522 221.87C35.9736 221.87 26.6736 231.17 26.6736 242.718C26.6736 254.267 47.522 275.831 47.522 275.831C47.522 275.831 68.3704 254.267 68.3704 242.718ZM37.8132 242.31C37.8132 236.995 42.2077 232.601 47.522 232.601C52.8363 232.601 57.2308 236.893 57.2308 242.31C57.2308 247.624 52.9385 252.018 47.522 252.018C42.2077 252.018 37.8132 247.624 37.8132 242.31Z" fill="#F79781"/>
<path d="M74.0629 59.6031C74.0629 59.6031 101.697 73.0679 134.179 73.0675C176 73.067 180.885 93.4553 198.363 106C198.363 106 189.382 159.118 206.86 171.663C224.338 184.207 256.836 154.601 245.5 133.999C236.766 118.126 229.088 119.345 213 127.5C178.756 144.858 169.56 148.641 156 183C147.275 205.108 158.952 227.672 142.227 244.758C107.319 280.419 80.4296 262.32 80.4296 262.32" stroke="#F79781" stroke-width="3" stroke-dasharray="8 8"/>
</svg>
