<svg width="256" height="293" viewBox="0 0 256 293" fill="none" xmlns="http://www.w3.org/2000/svg">
<path d="M68.3703 42.7185C68.3703 31.1701 59.0703 21.8701 47.5219 21.8701C35.9736 21.8701 26.6736 31.1701 26.6736 42.7185C26.6736 54.2668 47.5219 75.8306 47.5219 75.8306C47.5219 75.8306 68.3703 54.2668 68.3703 42.7185ZM37.8131 42.3097C37.8131 36.9954 42.2077 32.6009 47.5219 32.6009C52.8362 32.6009 57.2307 36.8932 57.2307 42.3097C57.2307 47.624 52.9384 52.0185 47.5219 52.0185C42.2077 52.0185 37.8131 47.624 37.8131 42.3097Z" fill="#F79781"/>
<path d="M68.3703 242.718C68.3703 231.17 59.0703 221.87 47.5219 221.87C35.9736 221.87 26.6736 231.17 26.6736 242.718C26.6736 254.267 47.5219 275.831 47.5219 275.831C47.5219 275.831 68.3703 254.267 68.3703 242.718ZM37.8131 242.31C37.8131 236.995 42.2077 232.601 47.5219 232.601C52.8362 232.601 57.2307 236.893 57.2307 242.31C57.2307 247.624 52.9384 252.018 47.5219 252.018C42.2077 252.018 37.8131 247.624 37.8131 242.31Z" fill="#F79781"/>
<path d="M89.6032 43.0834C89.6032 43.0834 140.255 13.7267 165.966 29.8857C193.051 46.9081 167.649 102.194 185.934 110.34C185.934 110.34 214.471 123.053 232.757 131.199C251.042 139.345 258.617 91.9373 244.283 74.888C233.239 61.7518 218.026 60.9776 201.689 65.793C167.959 75.7346 210.046 121.908 204.614 157.206C201.118 179.919 200.583 194.195 188.86 213.859C164.393 254.899 79.4022 265.802 79.4022 265.802" stroke="#F79781" stroke-width="3" stroke-dasharray="8 8"/>
</svg>
