<svg width="40" height="37" viewBox="0 0 40 37" fill="none" xmlns="http://www.w3.org/2000/svg">
<path d="M39.191 18.9967H36.321V12.1691C36.321 12.1378 36.3177 12.1072 36.3159 12.0763V6.81855C36.3159 6.46103 36.0026 6.17124 35.6161 6.17124H28.1961L21.7813 0.237445C21.65 0.116085 21.472 0.0478821 21.2864 0.0478821C21.1008 0.0478821 20.9228 0.116065 20.7915 0.237445L15.9545 4.71171L13.6806 2.60828C13.4072 2.35551 12.9642 2.35551 12.6908 2.60828L8.83447 6.17539C8.80901 6.17278 8.78312 6.17124 8.75688 6.17124H0.809053C0.422542 6.17124 0.109253 6.46103 0.109253 6.81855V13.7079C0.109253 13.729 0.11052 13.7499 0.112675 13.7705V35.1951C0.112675 36.1639 0.964786 36.9521 2.01214 36.9521H34.4215C35.4689 36.9521 36.321 36.1639 36.321 35.1951V28.3675H39.191C39.5775 28.3675 39.8908 28.0777 39.8908 27.7202V19.644C39.8908 19.2865 39.5775 18.9967 39.191 18.9967ZM34.9163 7.46589V10.4746C34.7583 10.4351 34.5928 10.4121 34.4215 10.4121H32.7807L29.5956 7.46589H34.9163ZM21.2864 1.61064L30.8013 10.4121H28.6773L20.2244 2.59301L21.2864 1.61064ZM19.2346 3.50855L26.6978 10.4121H22.1171L16.9443 5.62715L19.2346 3.50855ZM13.1857 3.98147L14.9648 5.62713L15.9545 6.54257L20.1377 10.4121H18.2302L12.232 4.86368L13.1857 3.98147ZM16.2507 10.4121H6.23374L11.2422 5.77922L16.2507 10.4121ZM4.2543 10.4121H2.01214C1.83767 10.4121 1.66948 10.4357 1.50888 10.4766V7.46589H7.43936L4.2543 10.4121ZM34.9214 35.1951C34.9214 35.45 34.6971 35.6575 34.4215 35.6575H2.01214C1.73654 35.6575 1.5123 35.45 1.5123 35.1951V12.1691C1.5123 11.9142 1.73654 11.7067 2.01214 11.7067H34.4215C34.68 11.7067 34.8907 11.8898 34.9163 12.1226V13.7079C34.9163 13.7333 34.9184 13.7583 34.9214 13.783V18.9967H28.5607C25.7677 18.9967 23.4954 21.0986 23.4954 23.6821C23.4954 26.2656 25.7677 28.3676 28.5607 28.3676H34.9214V35.1951H34.9214ZM38.4912 27.0729H36.321H34.9214H28.5607C26.5395 27.0729 24.895 25.5518 24.895 23.682C24.895 21.8124 26.5395 20.2914 28.5607 20.2914H34.9214H36.321H38.4912V27.0729Z" fill="#536779"/>
<path d="M28.5939 21.4627C27.271 21.4627 26.1946 22.4583 26.1946 23.6821C26.1946 24.9058 27.271 25.9015 28.5939 25.9015C29.9169 25.9015 30.9933 24.9058 30.9933 23.6821C30.9932 22.4583 29.9169 21.4627 28.5939 21.4627ZM28.5939 24.6068C28.0427 24.6068 27.5942 24.1919 27.5942 23.6821C27.5942 23.1722 28.0427 22.7573 28.5939 22.7573C29.1451 22.7573 29.5936 23.1722 29.5936 23.6821C29.5936 24.1919 29.1451 24.6068 28.5939 24.6068Z" fill="#536779"/>
</svg>
