<svg width="24" height="25" viewBox="0 0 24 25" fill="none" xmlns="http://www.w3.org/2000/svg">
<path d="M7.89975 12.6704C7.89975 10.4954 9.66201 8.73165 11.8364 8.73165C14.0109 8.73165 15.7741 10.4954 15.7741 12.6704C15.7741 14.8455 14.0109 16.6092 11.8364 16.6092C9.66201 16.6092 7.89975 14.8455 7.89975 12.6704ZM5.77114 12.6704C5.77114 16.0213 8.48657 18.7375 11.8364 18.7375C15.1863 18.7375 17.9018 16.0213 17.9018 12.6704C17.9018 9.31958 15.1863 6.60337 11.8364 6.60337C8.48657 6.60337 5.77114 9.31958 5.77114 12.6704ZM16.7244 6.36281C16.7243 6.64323 16.8073 6.91739 16.963 7.15061C17.1187 7.38384 17.34 7.56566 17.5989 7.67308C17.8579 7.78049 18.1429 7.80868 18.4178 7.75409C18.6928 7.69949 18.9454 7.56455 19.1437 7.36634C19.3421 7.16813 19.4772 6.91555 19.532 6.64054C19.5868 6.36552 19.5588 6.08043 19.4516 5.82131C19.3444 5.56219 19.1629 5.34068 18.9298 5.18479C18.6968 5.0289 18.4228 4.94564 18.1424 4.94553H18.1419C17.7661 4.9457 17.4057 5.09506 17.14 5.3608C16.8742 5.62653 16.7248 5.98692 16.7244 6.36281ZM7.06441 22.2879C5.91279 22.2354 5.28685 22.0435 4.87088 21.8814C4.3194 21.6667 3.92592 21.4109 3.51222 20.9976C3.09852 20.5844 2.84243 20.1912 2.62868 19.6395C2.46653 19.2236 2.2747 18.5973 2.22235 17.4454C2.16509 16.1999 2.15365 15.8258 2.15365 12.6705C2.15365 9.51525 2.16603 9.14216 2.22235 7.89569C2.2748 6.74373 2.46804 6.11865 2.62868 5.70152C2.84338 5.14989 3.09908 4.75629 3.51222 4.34247C3.92536 3.92865 4.31846 3.67249 4.87088 3.45868C5.28666 3.29648 5.91279 3.1046 7.06441 3.05223C8.30949 2.99495 8.6835 2.98351 11.8364 2.98351C14.9894 2.98351 15.3638 2.99589 16.6099 3.05223C17.7615 3.10469 18.3864 3.29799 18.8034 3.45868C19.3549 3.67249 19.7484 3.92922 20.1621 4.34247C20.5758 4.75572 20.8309 5.14989 21.0456 5.70152C21.2078 6.11742 21.3996 6.74373 21.452 7.89569C21.5092 9.14216 21.5207 9.51525 21.5207 12.6705C21.5207 15.8258 21.5092 16.1989 21.452 17.4454C21.3995 18.5973 21.2067 19.2234 21.0456 19.6395C20.8309 20.1912 20.5752 20.5847 20.1621 20.9976C19.749 21.4105 19.3549 21.6667 18.8034 21.8814C18.3877 22.0436 17.7615 22.2355 16.6099 22.2879C15.3648 22.3451 14.9908 22.3566 11.8364 22.3566C8.68208 22.3566 8.30911 22.3451 7.06441 22.2879ZM6.96661 0.926595C5.70915 0.983876 4.8499 1.18332 4.09951 1.4754C3.32238 1.77702 2.6645 2.18167 2.00709 2.83823C1.34968 3.49479 0.946187 4.1539 0.644651 4.93125C0.352659 5.68233 0.153273 6.54136 0.0960084 7.79918C0.037799 9.05898 0.0244751 9.46175 0.0244751 12.6704C0.0244751 15.8791 0.037799 16.2819 0.0960084 17.5417C0.153273 18.7996 0.352659 19.6585 0.644651 20.4096C0.946187 21.1865 1.34978 21.8463 2.00709 22.5026C2.6644 23.1589 3.32238 23.563 4.09951 23.8655C4.85132 24.1575 5.70915 24.357 6.96661 24.4143C8.22671 24.4715 8.62869 24.4858 11.8364 24.4858C15.0442 24.4858 15.4468 24.4725 16.7063 24.4143C17.9638 24.357 18.8225 24.1575 19.5734 23.8655C20.35 23.563 21.0084 23.1592 21.6658 22.5026C22.3232 21.8461 22.7259 21.1865 23.0282 20.4096C23.3202 19.6585 23.5206 18.7995 23.5769 17.5417C23.6341 16.2809 23.6475 15.8791 23.6475 12.6704C23.6475 9.46175 23.6341 9.05898 23.5769 7.79918C23.5196 6.54127 23.3202 5.68186 23.0282 4.93125C22.7259 4.15437 22.3222 3.49583 21.6658 2.83823C21.0094 2.18063 20.35 1.77702 19.5743 1.4754C18.8225 1.18332 17.9637 0.982931 16.7072 0.926595C15.4478 0.869314 15.0451 0.855042 11.8374 0.855042C8.62964 0.855042 8.22671 0.868369 6.96661 0.926595Z" fill="white"/>
</svg>
