<svg width="40" height="40" viewBox="0 0 40 40" fill="none" xmlns="http://www.w3.org/2000/svg">
<rect width="40" height="40" rx="5" fill="#D3DDE6"/>
<path d="M23.7333 21.4259C22.6667 22.6954 22.6667 23.9649 21.6 23.9649C20.5333 23.9649 19.4667 22.6954 18.4 21.4259C17.3333 20.1563 16.2667 18.8868 16.2667 17.6172C16.2667 16.3477 17.3333 16.3477 18.4 15.0782C19.4667 13.8086 16.2667 10 15.2 10C14.1333 10 12 13.8086 12 13.8086C12 16.3477 14.192 21.4957 16.2667 23.9649C18.3413 26.4342 22.6667 29.0431 24.8 29.0431C24.8 29.0431 28 26.504 28 25.2345C28 23.9649 24.8 20.1563 23.7333 21.4259Z" fill="white"/>
</svg>
